<?xml version="1.0" encoding="UTF-8" standalone="no"?>
<!DOCTYPE svg PUBLIC "-//W3C//DTD SVG 1.1//EN" "http://www.w3.org/Graphics/SVG/1.1/DTD/svg11.dtd">
<svg width="100%" height="100%" viewBox="0 0 1288 1289" version="1.1" xmlns="http://www.w3.org/2000/svg" xmlns:xlink="http://www.w3.org/1999/xlink" xml:space="preserve" xmlns:serif="http://www.serif.com/" style="fill-rule:evenodd;clip-rule:evenodd;stroke-linejoin:round;stroke-miterlimit:2;">
    <g transform="matrix(1,0,0,1,-28298.1,-21188.8)">
        <g transform="matrix(1,0,0,1,27103.4,18967.3)">
            <g transform="matrix(1.29623,0,0,1.29623,107.455,850.559)">
                <g transform="matrix(0.735946,0,0,0.735946,1079.9,1106.49)">
                    <g>
                        <g transform="matrix(0.821607,0,0,1.21625,-6968.91,-14539.1)">
                            <path d="M8903.64,12761.5C8903.64,12761.5 8540.09,12668.3 8540.09,12578.7C8540.09,12489 8610.98,12422.5 8617.25,12345.8C8624.06,12262.3 8556.86,12252 8584.74,12209.3C8637.87,12127.9 9169.31,12127.9 9222.44,12209.3C9250.32,12252 9183.12,12262.3 9189.93,12345.8C9196.2,12422.5 9267.09,12489 9267.09,12578.7C9267.09,12668.3 8903.64,12761.5 8903.64,12761.5ZM8900.53,12739.3C8901.93,12739.6 8903.46,12739.6 8904.86,12739.3C8904.86,12739.3 9068.14,12699.8 9166.12,12647.6C9209.63,12624.4 9240.05,12598.5 9240.05,12572.6C9240.05,12530.9 9222.45,12492.6 9204.08,12455.8C9186.12,12419.8 9167.39,12385.4 9164.7,12350.4C9160.64,12297.5 9187.75,12266.5 9199.94,12245.8C9206.04,12235.4 9208.31,12227.2 9203.88,12220.2C9194.84,12206 9169.95,12194.3 9134.43,12185.7C9055.78,12166.6 8924.27,12161.4 8812.42,12168.4C8748.22,12172.4 8690.5,12180.3 8652.81,12191.7C8625.6,12200 8608.65,12210.4 8605.09,12221.9C8600.97,12235.2 8607.08,12246.8 8615.92,12261.1C8628.07,12280.7 8645.17,12306 8641.7,12351.2C8639.01,12386.1 8620.35,12420.5 8602.45,12456.3C8584.15,12492.9 8566.62,12531 8566.62,12572.8C8566.62,12598.6 8596.92,12624.5 8640.26,12647.7C8737.87,12699.8 8900.53,12739.3 8900.53,12739.3ZM8902.7,12730.6C8883.29,12725.8 8737.89,12688.8 8648.22,12640.9C8608.49,12619.6 8579.45,12596.5 8579.45,12572.8C8579.45,12532 8596.74,12494.8 8614.61,12459C8632.9,12422.4 8651.77,12387.3 8654.51,12351.6C8658.13,12304.6 8640.42,12278.2 8627.76,12257.7C8620.06,12245.3 8614.07,12235.3 8617.66,12223.7C8620.59,12214.2 8635.65,12206.4 8658.06,12199.6C8694.78,12188.5 8751.05,12180.9 8813.59,12177C8923.52,12170.2 9052.79,12175 9130.09,12193.8C9161.42,12201.4 9184.11,12211.1 9192.08,12223.6C9194.14,12226.9 9193.66,12230.5 9192.03,12234.6C9190.06,12239.7 9186.35,12245.4 9182,12252.2C9168.24,12273.4 9148.27,12303.8 9151.88,12350.9C9154.63,12386.6 9173.57,12421.8 9191.92,12458.6C9209.86,12494.5 9227.21,12531.9 9227.21,12572.6C9227.21,12596.3 9198.06,12619.5 9158.17,12640.8C9068.14,12688.7 8922.14,12725.8 8902.7,12730.6ZM8903.59,12300.6C8777.52,12300.6 8675.17,12369.7 8675.17,12454.9C8675.17,12540 8777.52,12609.2 8903.59,12609.2C9029.66,12609.2 9132.01,12540 9132.01,12454.9C9132.01,12369.7 9029.66,12300.6 8903.59,12300.6Z" style="fill:white;"/>
                        </g>
                        <g transform="matrix(0.546884,0,0,0.546884,-5211.75,-671.703)">
                            <path d="M10227.9,2042.39C10207,2037.91 10185.4,2035.55 10163.2,2035.55C9994.09,2035.55 9856.79,2172.84 9856.79,2341.95C9856.79,2511.06 9994.09,2648.35 10163.2,2648.35C10182.7,2648.35 10201.7,2646.53 10220.2,2643.06C10106.2,2591.86 10026.8,2477.33 10026.8,2344.39C10026.8,2208.49 10109.8,2091.82 10227.9,2042.39Z" style="fill:rgb(233,152,24);"/>
                        </g>
                        <g transform="matrix(0.546884,0,0,0.546884,-5211.75,-671.703)">
                            <path d="M10254.6,2656.23C10225.6,2664.66 10194.9,2669.19 10163.2,2669.19C9982.59,2669.19 9835.96,2522.56 9835.96,2341.95C9835.96,2161.34 9982.59,2014.71 10163.2,2014.71C10197.8,2014.71 10231.2,2020.11 10262.6,2030.11C10126.4,2069.7 10026.8,2195.5 10026.8,2344.39C10026.8,2490.35 10122.5,2614.11 10254.6,2656.23Z" style="fill:rgb(233,152,24);"/>
                        </g>
                        <g transform="matrix(0.546884,0,0,0.546884,-5211.75,-671.703)">
                            <path d="M10163.2,1993.88C10355.3,1993.88 10511.3,2149.84 10511.3,2341.95C10511.3,2534.05 10355.3,2690.02 10163.2,2690.02C9971.09,2690.02 9815.12,2534.05 9815.12,2341.95C9815.12,2149.84 9971.09,1993.88 10163.2,1993.88ZM10220.2,2643.06C10231.3,2648.07 10242.8,2652.48 10254.6,2656.23C10225.6,2664.66 10194.9,2669.19 10163.2,2669.19C9982.59,2669.19 9835.96,2522.56 9835.96,2341.95C9835.96,2161.34 9982.59,2014.71 10163.2,2014.71C10197.8,2014.71 10231.2,2020.11 10262.6,2030.11C10250.7,2033.56 10239.1,2037.67 10227.9,2042.39C10366,2072.11 10469.6,2195.02 10469.6,2341.95C10469.6,2491.59 10362.1,2616.33 10220.2,2643.06Z" style="fill:rgb(233,152,24);"/>
                        </g>
                        <g transform="matrix(0.546884,0,0,0.546884,-5211.75,-671.703)">
                            <path d="M10163.2,1993.88C10355.3,1993.88 10511.3,2149.84 10511.3,2341.95C10511.3,2534.05 10355.3,2690.02 10163.2,2690.02C9971.09,2690.02 9815.12,2534.05 9815.12,2341.95C9815.12,2149.84 9971.09,1993.88 10163.2,1993.88ZM10163.2,2035.55C9994.09,2035.55 9856.79,2172.84 9856.79,2341.95C9856.79,2511.06 9994.09,2648.35 10163.2,2648.35C10332.3,2648.35 10469.6,2511.06 10469.6,2341.95C10469.6,2172.84 10332.3,2035.55 10163.2,2035.55Z" style="fill:rgb(233,152,24);"/>
                        </g>
                    </g>
                </g>
                <g transform="matrix(1.26906,0,0,1.26906,-9944.72,-1353.36)">
                    <g transform="matrix(0.776178,0.630514,-0.630514,0.776178,3553.23,-4858.15)">
                        <text x="8619.38px" y="2575.7px" style="font-family:'Arial-BoldMT', 'Arial', sans-serif;font-weight:700;font-size:90.741px;fill:white;">S</text>
                    </g>
                    <g transform="matrix(0.882557,0.470205,-0.470205,0.882557,2250.31,-3770.85)">
                        <text x="8673.81px" y="2619.34px" style="font-family:'Arial-BoldMT', 'Arial', sans-serif;font-weight:700;font-size:90.741px;fill:white;">O</text>
                    </g>
                    <g transform="matrix(0.955719,0.294281,-0.294281,0.955719,1168.72,-2455.83)">
                        <text x="8744.8px" y="2655.61px" style="font-family:'Arial-BoldMT', 'Arial', sans-serif;font-weight:700;font-size:90.741px;fill:white;">L</text>
                    </g>
                    <g transform="matrix(0.992146,0.125082,-0.125082,0.992146,403.689,-1080.56)">
                        <text x="8806.74px" y="2674.45px" style="font-family:'Arial-BoldMT', 'Arial', sans-serif;font-weight:700;font-size:90.741px;fill:white;">U</text>
                    </g>
                    <g transform="matrix(0.998653,-0.0518817,0.0518817,0.998653,-127.211,464.368)">
                        <text x="8880.89px" y="2682.49px" style="font-family:'Arial-BoldMT', 'Arial', sans-serif;font-weight:700;font-size:90.741px;fill:white;">T</text>
                    </g>
                    <g transform="matrix(0.984036,-0.177968,0.177968,0.984036,-333.731,1634.72)">
                        <text x="8945.29px" y="2677.62px" style="font-family:'Arial-BoldMT', 'Arial', sans-serif;font-weight:700;font-size:90.741px;fill:white;">I</text>
                    </g>
                    <g transform="matrix(0.947398,-0.320058,0.320058,0.947398,-383.031,3014.46)">
                        <text x="8979.26px" y="2672.51px" style="font-family:'Arial-BoldMT', 'Arial', sans-serif;font-weight:700;font-size:90.741px;fill:white;">O</text>
                    </g>
                    <g transform="matrix(0.866042,-0.499972,0.499972,0.866042,-109.908,4881.44)">
                        <text x="9054.53px" y="2645.83px" style="font-family:'Arial-BoldMT', 'Arial', sans-serif;font-weight:700;font-size:90.741px;fill:white;">N</text>
                    </g>
                    <g transform="matrix(0.760184,-0.649708,0.649708,0.760184,492.749,6549.8)">
                        <text x="9118.72px" y="2607.42px" style="font-family:'Arial-BoldMT', 'Arial', sans-serif;font-weight:700;font-size:90.741px;fill:white;">S</text>
                    </g>
                </g>
                <g transform="matrix(1.03952,0,0,1.03952,-7908.16,-830.941)">
                    <g transform="matrix(0.108626,-0.994083,0.994083,0.108626,5291.6,10491)">
                        <text x="8495.69px" y="2294.83px" style="font-family:'Arial-Black', 'Arial Black', sans-serif;font-weight:900;font-size:115.507px;fill:white;">E</text>
                    </g>
                    <g transform="matrix(0.322253,-0.946654,0.946654,0.322253,3670.18,9549.38)">
                        <text x="8504.21px" y="2211.51px" style="font-family:'Arial-Black', 'Arial Black', sans-serif;font-weight:900;font-size:115.507px;fill:white;">C</text>
                    </g>
                    <g transform="matrix(0.519441,-0.854506,0.854506,0.519441,2284.09,8313.83)">
                        <text x="8533.66px" y="2126.19px" style="font-family:'Arial-Black', 'Arial Black', sans-serif;font-weight:900;font-size:115.507px;fill:white;">L</text>
                    </g>
                    <g transform="matrix(0.63916,-0.769074,0.769074,0.63916,1509.09,7338.1)">
                        <text x="8574.55px" y="2060.86px" style="font-family:'Arial-Black', 'Arial Black', sans-serif;font-weight:900;font-size:115.507px;fill:white;">I</text>
                    </g>
                    <g transform="matrix(0.758001,-0.652254,0.652254,0.758001,760.932,6100.84)">
                        <text x="8602.17px" y="2024.96px" style="font-family:'Arial-Black', 'Arial Black', sans-serif;font-weight:900;font-size:115.507px;fill:white;">P</text>
                    </g>
                    <g transform="matrix(0.8757,-0.482855,0.482855,0.8757,125.806,4429.12)">
                        <text x="8665.59px" y="1970.21px" style="font-family:'Arial-Black', 'Arial Black', sans-serif;font-weight:900;font-size:115.507px;fill:white;">S</text>
                    </g>
                    <g transform="matrix(0.959298,-0.282396,0.282396,0.959298,-189.241,2546.36)">
                        <text x="8738.86px" y="1929.67px" style="font-family:'Arial-Black', 'Arial Black', sans-serif;font-weight:900;font-size:115.507px;fill:white;">E</text>
                    </g>
                    <g transform="matrix(0.999826,0.0186285,-0.0186285,0.999826,36.946,-164.671)">
                        <text x="8857.47px" y="1900.8px" style="font-family:'Arial-Black', 'Arial Black', sans-serif;font-weight:900;font-size:115.507px;fill:white;">S</text>
                    </g>
                    <g transform="matrix(0.972536,0.232752,-0.232752,0.972536,688.305,-2028.84)">
                        <text x="8941.23px" y="1902.22px" style="font-family:'Arial-Black', 'Arial Black', sans-serif;font-weight:900;font-size:115.507px;fill:white;">E</text>
                    </g>
                    <g transform="matrix(0.89844,0.439097,-0.439097,0.89844,1759.95,-3766.8)">
                        <text x="9022.87px" y="1921.18px" style="font-family:'Arial-Black', 'Arial Black', sans-serif;font-weight:900;font-size:115.507px;fill:white;">C</text>
                    </g>
                    <g transform="matrix(0.772163,0.635424,-0.635424,0.772163,3319.96,-5338.31)">
                        <text x="9104.11px" y="1960.44px" style="font-family:'Arial-Black', 'Arial Black', sans-serif;font-weight:900;font-size:115.507px;fill:white;">U</text>
                    </g>
                    <g transform="matrix(0.593598,0.804762,-0.804762,0.593598,5357.55,-6565.18)">
                        <text x="9178.99px" y="2021.94px" style="font-family:'Arial-Black', 'Arial Black', sans-serif;font-weight:900;font-size:115.507px;fill:white;">R</text>
                    </g>
                    <g transform="matrix(0.458788,0.888546,-0.888546,0.458788,6857.56,-7068.42)">
                        <text x="9231.14px" y="2095.05px" style="font-family:'Arial-Black', 'Arial Black', sans-serif;font-weight:900;font-size:115.507px;fill:white;">I</text>
                    </g>
                    <g transform="matrix(0.307576,0.951524,-0.951524,0.307576,8438.2,-7326.68)">
                        <text x="9253.24px" y="2134.51px" style="font-family:'Arial-Black', 'Arial Black', sans-serif;font-weight:900;font-size:115.507px;fill:white;">T</text>
                    </g>
                    <g transform="matrix(0.0901539,0.995928,-0.995928,0.0901539,10647.9,-7226.93)">
                        <text x="9279.3px" y="2214.2px" style="font-family:'Arial-Black', 'Arial Black', sans-serif;font-weight:900;font-size:115.507px;fill:white;">Y</text>
                    </g>
                </g>
                <g transform="matrix(0.92118,0,0,0.92118,-10594.8,-11101.5)">
                    <path d="M12571,13865.6C12558.2,13826.7 12551.4,13785.2 12551.4,13742C12551.4,13546.2 12693.1,13383.3 12879.4,13350.2L12882.1,13360.5C12700.3,13392.4 12562,13551.2 12562,13742C12562,13784.2 12568.7,13824.8 12581.2,13862.8L12571,13865.6ZM13024.4,13351.2C13208.2,13386.4 13347.2,13548.1 13347.2,13742C13347.2,13785.8 13340.1,13828 13327,13867.5L13316.7,13864.6C13329.6,13826.1 13336.6,13784.9 13336.6,13742C13336.6,13553 13200.9,13395.5 13021.8,13361.5L13024.4,13351.2ZM13249.5,14003.1C13176.5,14086.9 13069,14139.9 12949.3,14139.9C12829,14139.9 12721.1,14086.5 12648.1,14002L12655.7,13994.5C12726.8,14077.1 12832,14129.3 12949.3,14129.3C13066.1,14129.3 13170.9,14077.5 13241.9,13995.6L13249.5,14003.1Z" style="fill:rgb(233,152,24);"/>
                </g>
            </g>
        </g>
    </g>
</svg>
